#!OML:ASF E:\Style4\Style4.ASF
:FULLY-SPECIFIED
:DEGREES
1894
root 0.60468 16.829 -1.5081 6.1682 -16.2274 1.59669
lowerback 18.1685 1.34608 0.804614
upperback 10.2109 1.75132 -0.0489883
thorax 0.795125 0.86391 -0.802336
lowerneck -4.82395 -4.43229 -4.23619
upperneck -8.61637 -5.62781 4.2411
head -1.6432 -2.78929 2.05146
rclavicle 1.94809e-014 -5.96354e-015
rhumerus 44.1743 16.936 -65.4407
rradius 83.9428
rwrist -24.6391
rhand -33.2043 34.5797
rfingers 7.12502
rthumb -6.41144 4.69677
lclavicle 1.94809e-014 -5.96354e-015
lhumerus 49.9376 -28.3784 66.6003
lradius 85.1336
lwrist 33.1391
lhand -16.5205 17.5168
lfingers 7.12502
lthumb 9.69796 47.2736
rfemur -38.6653 1.08973 16.4476
rtibia 53.5902
rfoot -20.2238 -9.18693
rtoes -11.7521
lfemur -34.9099 11.4789 -22.9043
ltibia 55.9648
lfoot -27.0491 14.2738
ltoes -14.2464
1895
root 0.600655 16.8329 -1.49803 6.06859 -16.2478 1.68036
lowerback 18.0947 1.36461 0.712993
upperback 10.1633 1.76237 -0.0806755
thorax 0.779663 0.866771 -0.784842
lowerneck -4.36813 -4.44467 -4.27355
upperneck -8.89388 -5.65096 4.34611
head -1.80687 -2.80493 2.11346
rclavicle -2.16675e-014 3.22031e-014
rhumerus 44.1722 17.0214 -65.3524
rradius 84.2697
rwrist -24.6712
rhand -33.4137 35.0302
rfingers 7.12502
rthumb -6.61363 5.15347
lclavicle -2.16675e-014 3.22031e-014
lhumerus 49.924 -28.4695 66.5184
lradius 85.4647
lwrist 32.7392
lhand -16.6306 17.4379
lfingers 7.12502
lthumb 9.59178 47.1995
rfemur -38.5432 1.08251 16.3792
rtibia 53.6022
rfoot -20.2493 -9.218
rtoes -12.171
lfemur -34.7186 11.4842 -22.9665
ltibia 55.8683
lfoot -27.0399 14.3434
ltoes -14.5425
1896
root 0.596143 16.8354 -1.4837 6.03408 -16.2758 1.70341
lowerback 17.9387 1.36502 0.660782
upperback 10.1361 1.75595 -0.0645283
thorax 0.827542 0.86143 -0.733922
lowerneck -4.08154 -4.46585 -4.454
upperneck -9.06015 -5.67709 4.46621
head -1.90196 -2.81679 2.19786
rclavicle -2.68359e-014 -1.59028e-015
rhumerus 44.2055 17.0962 -65.254
rradius 84.5747
rwrist -24.4874
rhand -33.4545 35.3581
rfingers 7.12502
rthumb -6.65297 5.48258
lclavicle -2.68359e-014 -1.59028e-015
lhumerus 49.9033 -28.4453 66.5347
lradius 85.7992
lwrist 32.5725
lhand -16.7147 17.3798
lfingers 7.12502
lthumb 9.51058 47.1452
rfemur -38.4595 1.08166 16.3721
rtibia 53.6095
rfoot -20.2749 -9.26475
rtoes -12.5393
lfemur -34.5755 11.5096 -22.9782
ltibia 55.8046
lfoot -27.0952 14.2526
ltoes -14.1762
1897
root 0.59053 16.8371 -1.46817 5.98156 -16.3303 1.71734
lowerback 17.7872 1.37902 0.582464
upperback 10.1118 1.76354 -0.0288056
thorax 0.875213 0.861291 -0.650131
lowerneck -3.71537 -4.48098 -4.67634
upperneck -9.26925 -5.69648 4.61
head -2.02424 -2.82497 2.30197
rclavicle 1.33186e-014 1.31198e-014
rhumerus 44.3167 17.1237 -65.2195
rradius 84.7974
rwrist -24.1779
rhand -33.5145 35.6046
rfingers 7.12502
rthumb -6.71086 5.73098
lclavicle 1.33186e-014 1.31198e-014
lhumerus 49.7917 -28.4578 66.6744
lradius 86.1417
lwrist 32.4205
lhand -16.7396 17.3594
lfingers 7.12502
lthumb 9.48657 47.1259
rfemur -38.3421 1.1249 16.3604
rtibia 53.606
rfoot -20.3667 -9.24714
rtoes -12.7851
lfemur -34.3949 11.5821 -22.9795
ltibia 55.7416
lfoot -27.1742 14.1015
ltoes -13.5729
1898
root 0.585209 16.8387 -1.45625 5.89863 -16.3689 1.71911
lowerback 17.7426 1.41195 0.542576
upperback 10.0495 1.80191 -0.0140743
thorax 0.829577 0.87837 -0.618374
lowerneck -3.25513 -4.50029 -4.80433
upperneck -9.46544 -5.72822 4.74718
head -2.16153 -2.84292 2.3909
rclavicle -7.95139e-015 1.11319e-014
rhumerus 44.4897 17.1089 -65.1782
rradius 84.8815
rwrist -23.934
rhand -33.7645 35.8327
rfingers 7.12502
rthumb -6.95226 5.96688
lclavicle -7.95139e-015 1.11319e-014
lhumerus 49.5751 -28.5924 66.8971
lradius 86.5547
lwrist 32.3433
lhand -16.6144 17.388
lfingers 7.12502
lthumb 9.60744 47.1489
rfemur -38.1975 1.2007 16.3626
rtibia 53.6006
rfoot -20.4214 -9.28796
rtoes -12.7446
lfemur -34.2047 11.68 -22.9668
ltibia 55.6649
lfoot -27.2152 14.135
ltoes -13.6062
